<svg xmlns="http://www.w3.org/2000/svg" width="23" height="14" viewBox="0 0 23 14" fill="none">
  <path
    d="M11.2781 3.0075C10.5346 3.0075 9.80775 3.22798 9.18953 3.64107C8.5713 4.05415 8.08945 4.64129 7.80491 5.32822C7.52038 6.01516 7.44593 6.77105 7.59098 7.50029C7.73604 8.22954 8.09409 8.8994 8.61985 9.42515C9.1456 9.95091 9.81546 10.309 10.5447 10.454C11.274 10.5991 12.0298 10.5246 12.7168 10.2401C13.4037 9.95555 13.9908 9.4737 14.4039 8.85547C14.817 8.23725 15.0375 7.51041 15.0375 6.76687C15.0375 5.76983 14.6414 4.81361 13.9364 4.1086C13.2314 3.40358 12.2752 3.0075 11.2781 3.0075ZM11.2781 9.0225C10.832 9.0225 10.3959 8.89021 10.025 8.64236C9.65403 8.39451 9.36492 8.04223 9.1942 7.63006C9.02348 7.2179 8.97881 6.76437 9.06584 6.32682C9.15287 5.88928 9.3677 5.48736 9.68316 5.17191C9.99861 4.85645 10.4005 4.64162 10.8381 4.55459C11.2756 4.46756 11.7292 4.51223 12.1413 4.68295C12.5535 4.85367 12.9058 5.14278 13.1536 5.51372C13.4015 5.88465 13.5337 6.32075 13.5337 6.76687C13.5337 7.3651 13.2961 7.93883 12.8731 8.36184C12.4501 8.78485 11.8764 9.0225 11.2781 9.0225ZM21.8044 0H0.751875C0.552465 0 0.361223 0.0792153 0.220219 0.220219C0.0792151 0.361223 0 0.552465 0 0.751875V12.7819C0 12.9813 0.0792151 13.1725 0.220219 13.3135C0.361223 13.4545 0.552465 13.5337 0.751875 13.5337H21.8044C22.0038 13.5337 22.195 13.4545 22.336 13.3135C22.477 13.1725 22.5562 12.9813 22.5562 12.7819V0.751875C22.5562 0.552465 22.477 0.361223 22.336 0.220219C22.195 0.0792153 22.0038 0 21.8044 0ZM17.4482 12.03H5.10805C4.85561 11.1762 4.39359 10.3992 3.76406 9.76969C3.13453 9.14016 2.3575 8.67814 1.50375 8.4257V5.10805C2.3575 4.85561 3.13453 4.39359 3.76406 3.76406C4.39359 3.13453 4.85561 2.3575 5.10805 1.50375H17.4482C17.7006 2.3575 18.1627 3.13453 18.7922 3.76406C19.4217 4.39359 20.1987 4.85561 21.0525 5.10805V8.4257C20.1987 8.67814 19.4217 9.14016 18.7922 9.76969C18.1627 10.3992 17.7006 11.1762 17.4482 12.03ZM21.0525 3.5122C20.1507 3.12441 19.4318 2.40559 19.0441 1.50375H21.0525V3.5122ZM3.5122 1.50375C3.12441 2.40559 2.40559 3.12441 1.50375 3.5122V1.50375H3.5122ZM1.50375 10.0216C2.40559 10.4093 3.12441 11.1282 3.5122 12.03H1.50375V10.0216ZM19.0441 12.03C19.4318 11.1282 20.1507 10.4093 21.0525 10.0216V12.03H19.0441Z"
    fill="#121212" />
</svg>
