<svg xmlns="http://www.w3.org/2000/svg" width="48" height="48" viewBox="0 0 48 48" fill="none">
  <path
    d="M5.25 24C4.85218 24 4.47064 23.842 4.18934 23.5607C3.90804 23.2794 3.75 22.8978 3.75 22.5C3.75 22.1022 3.90804 21.7206 4.18934 21.4393C4.47064 21.158 4.85218 21 5.25 21H10.5C10.8978 21 11.2794 20.842 11.5607 20.5607C11.842 20.2794 12 19.8978 12 19.5C12 19.1022 11.842 18.7206 11.5607 18.4393C11.2794 18.158 10.8978 18 10.5 18H7.5C6.30653 18 5.16193 17.5259 4.31802 16.682C3.47411 15.8381 3 14.6935 3 13.5C3 12.3065 3.47411 11.1619 4.31802 10.318C5.16193 9.47411 6.30653 9 7.5 9C7.5 8.60218 7.65804 8.22064 7.93934 7.93934C8.22064 7.65804 8.60218 7.5 9 7.5C9.39782 7.5 9.77936 7.65804 10.0607 7.93934C10.342 8.22064 10.5 8.60218 10.5 9H12C12.3978 9 12.7794 9.15804 13.0607 9.43934C13.342 9.72064 13.5 10.1022 13.5 10.5C13.5 10.8978 13.342 11.2794 13.0607 11.5607C12.7794 11.842 12.3978 12 12 12H7.5C7.10218 12 6.72064 12.158 6.43934 12.4393C6.15804 12.7206 6 13.1022 6 13.5C6 13.8978 6.15804 14.2794 6.43934 14.5607C6.72064 14.842 7.10218 15 7.5 15H10.5C11.6935 15 12.8381 15.4741 13.682 16.318C14.5259 17.1619 15 18.3065 15 19.5C15 20.6935 14.5259 21.8381 13.682 22.682C12.8381 23.5259 11.6935 24 10.5 24C10.5 24.3978 10.342 24.7794 10.0607 25.0607C9.77936 25.342 9.39782 25.5 9 25.5C8.60218 25.5 8.22064 25.342 7.93934 25.0607C7.65804 24.7794 7.5 24.3978 7.5 24H5.25ZM43.5 10.5V36C43.5 36.7956 43.1839 37.5587 42.6213 38.1213C42.0587 38.6839 41.2957 39 40.5 39H7.5C6.70435 39 5.94129 38.6839 5.37868 38.1213C4.81607 37.5587 4.5 36.7956 4.5 36V28.5C4.5 28.1022 4.65804 27.7206 4.93934 27.4393C5.22064 27.158 5.60218 27 6 27C6.39782 27 6.77936 27.158 7.06066 27.4393C7.34196 27.7206 7.5 28.1022 7.5 28.5V36H30V30H15C14.6022 30 14.2206 29.842 13.9393 29.5607C13.658 29.2794 13.5 28.8978 13.5 28.5C13.5 28.1022 13.658 27.7206 13.9393 27.4393C14.2206 27.158 14.6022 27 15 27H30V21H19.5C19.1022 21 18.7206 20.842 18.4393 20.5607C18.158 20.2794 18 19.8978 18 19.5C18 19.1022 18.158 18.7206 18.4393 18.4393C18.7206 18.158 19.1022 18 19.5 18H40.5V12H18C17.6022 12 17.2206 11.842 16.9393 11.5607C16.658 11.2794 16.5 10.8978 16.5 10.5C16.5 10.1022 16.658 9.72064 16.9393 9.43934C17.2206 9.15804 17.6022 9 18 9H42C42.3978 9 42.7794 9.15804 43.0607 9.43934C43.342 9.72064 43.5 10.1022 43.5 10.5ZM33 27H40.5V21H33V27ZM40.5 36V30H33V36H40.5Z"
    fill="#005DB5" />
</svg>