<svg xmlns="http://www.w3.org/2000/svg" width="25" height="25" viewBox="0 0 25 25" fill="none">
  <path
    d="M17.043 20.0502C17.043 19.4966 17.4918 19.0477 18.0455 19.0477C18.5992 19.0477 19.048 19.4966 19.048 20.0502C19.048 20.6039 18.5992 21.0528 18.0455 21.0528C17.4918 21.0528 17.043 20.6039 17.043 20.0502Z"
    stroke="#121212" stroke-width="2" stroke-linecap="round" stroke-linejoin="round" />
  <path
    d="M7.01758 20.0502C7.01758 19.4966 7.46642 19.0477 8.02009 19.0477C8.57377 19.0477 9.02261 19.4966 9.02261 20.0502C9.02261 20.6039 8.57377 21.0528 8.02009 21.0528C7.46642 21.0528 7.01758 20.6039 7.01758 20.0502Z"
    stroke="#121212" stroke-width="2" stroke-linecap="round" stroke-linejoin="round" />
  <path d="M3.00781 3.00757H3.77746C4.26094 3.00757 4.67554 3.35264 4.76332 3.82808L7.01787 16.0403"
    stroke="#121212" stroke-width="2" stroke-linecap="round" stroke-linejoin="round" />
  <path
    d="M5.51367 6.01514H19.7924C20.4371 6.01514 20.9143 6.61488 20.7693 7.24308L18.9185 15.2632C18.8135 15.7181 18.4085 16.0403 17.9416 16.0403H7.01744"
    stroke="#121212" stroke-width="2" stroke-linecap="round" stroke-linejoin="round" />
</svg>
