<svg xmlns="http://www.w3.org/2000/svg" width="25" height="25" viewBox="0 0 25 25" fill="none">
  <path
    d="M13.0325 14.7871H2.00482C1.59378 14.7871 1.25293 14.4463 1.25293 14.0352V6.01512C1.25293 3.38853 3.38829 1.25317 6.01488 1.25317H15.0375C15.4485 1.25317 15.7894 1.59403 15.7894 2.00506V12.0302C15.7894 13.554 14.5563 14.7871 13.0325 14.7871ZM2.7567 13.2834H13.0325C13.7242 13.2834 14.2856 12.7219 14.2856 12.0302V2.75695H6.01488C4.22037 2.75695 2.7567 4.22062 2.7567 6.01512V13.2834Z"
    fill="#121212" />
  <path
    d="M19.0476 20.8022H18.0451C17.634 20.8022 17.2932 20.4614 17.2932 20.0504C17.2932 19.3586 16.7318 18.7972 16.04 18.7972C15.3483 18.7972 14.7869 19.3586 14.7869 20.0504C14.7869 20.4614 14.446 20.8022 14.035 20.8022H10.0249C9.61391 20.8022 9.27305 20.4614 9.27305 20.0504C9.27305 19.3586 8.71164 18.7972 8.01991 18.7972C7.32817 18.7972 6.76676 19.3586 6.76676 20.0504C6.76676 20.4614 6.42591 20.8022 6.01488 20.8022H5.01236C2.93716 20.8022 1.25293 19.118 1.25293 17.0428V14.0353C1.25293 13.6242 1.59378 13.2834 2.00482 13.2834H13.0325C13.7242 13.2834 14.2856 12.722 14.2856 12.0302V5.01263C14.2856 4.6016 14.6265 4.26074 15.0375 4.26074H16.8821C17.8746 4.26074 18.7869 4.79209 19.2782 5.65425L20.9925 8.65176C21.1228 8.88234 21.1228 9.17307 20.9925 9.40365C20.8621 9.63423 20.6115 9.77458 20.3408 9.77458H19.0476C18.9072 9.77458 18.7969 9.88485 18.7969 10.0252V13.0328C18.7969 13.1731 18.9072 13.2834 19.0476 13.2834H22.0551C22.4662 13.2834 22.807 13.6242 22.807 14.0353V17.0428C22.807 19.118 21.1228 20.8022 19.0476 20.8022ZM18.6967 19.2985H19.0476C20.2907 19.2985 21.3032 18.2859 21.3032 17.0428V14.7872H19.0476C18.0852 14.7872 17.2932 13.9952 17.2932 13.0328V10.0252C17.2932 9.06279 18.0751 8.2708 19.0476 8.2708L17.9749 6.3961C17.7543 6.00512 17.3333 5.76451 16.8821 5.76451H15.7894V12.0302C15.7894 13.5541 14.5563 14.7872 13.0325 14.7872H2.7567V17.0428C2.7567 18.2859 3.76924 19.2985 5.01236 19.2985H5.36325C5.69408 18.1456 6.75674 17.2934 8.01991 17.2934C9.28308 17.2934 10.3457 18.1456 10.6766 19.2985H13.3934C13.7242 18.1456 14.7869 17.2934 16.0501 17.2934C17.3132 17.2934 18.3659 18.1456 18.6967 19.2985Z"
    fill="#121212" />
  <path
    d="M8.02059 22.8072C6.49677 22.8072 5.26367 21.5741 5.26367 20.0503C5.26367 18.5264 6.49677 17.2933 8.02059 17.2933C9.54441 17.2933 10.7775 18.5264 10.7775 20.0503C10.7775 21.5741 9.54441 22.8072 8.02059 22.8072ZM8.02059 18.7971C7.32885 18.7971 6.76744 19.3585 6.76744 20.0503C6.76744 20.742 7.32885 21.3034 8.02059 21.3034C8.71232 21.3034 9.27373 20.742 9.27373 20.0503C9.27373 19.3585 8.71232 18.7971 8.02059 18.7971Z"
    fill="#121212" />
  <path
    d="M16.0401 22.8072C14.5163 22.8072 13.2832 21.5741 13.2832 20.0503C13.2832 18.5264 14.5163 17.2933 16.0401 17.2933C17.5639 17.2933 18.797 18.5264 18.797 20.0503C18.797 21.5741 17.5639 22.8072 16.0401 22.8072ZM16.0401 18.7971C15.3484 18.7971 14.787 19.3585 14.787 20.0503C14.787 20.742 15.3484 21.3034 16.0401 21.3034C16.7319 21.3034 17.2933 20.742 17.2933 20.0503C17.2933 19.3585 16.7319 18.7971 16.0401 18.7971Z"
    fill="#121212" />
  <path
    d="M22.0549 14.7871H19.0474C18.085 14.7871 17.293 13.9951 17.293 13.0327V10.0252C17.293 9.06274 18.085 8.27075 19.0474 8.27075H20.3406C20.6113 8.27075 20.8619 8.41111 20.9923 8.65171L22.7065 11.6593C22.7667 11.7695 22.8068 11.8999 22.8068 12.0302V14.0352C22.8068 14.4462 22.4659 14.7871 22.0549 14.7871ZM19.0474 9.77452C18.907 9.77452 18.7967 9.8848 18.7967 10.0252V13.0327C18.7967 13.1731 18.907 13.2833 19.0474 13.2833H21.303V12.2307L19.8995 9.77452H19.0474Z"
    fill="#121212" />
</svg>
