<svg xmlns="http://www.w3.org/2000/svg" width="25" height="25" viewBox="0 0 25 25" fill="none">
  <path
    d="M8.02044 5.76449C7.60941 5.76449 7.26855 5.42364 7.26855 5.01261V2.00506C7.26855 1.59403 7.60941 1.25317 8.02044 1.25317C8.43147 1.25317 8.77233 1.59403 8.77233 2.00506V5.01261C8.77233 5.42364 8.43147 5.76449 8.02044 5.76449Z"
    fill="#121212" />
  <path
    d="M16.04 5.76449C15.6289 5.76449 15.2881 5.42364 15.2881 5.01261V2.00506C15.2881 1.59403 15.6289 1.25317 16.04 1.25317C16.451 1.25317 16.7919 1.59403 16.7919 2.00506V5.01261C16.7919 5.42364 16.451 5.76449 16.04 5.76449Z"
    fill="#121212" />
  <path
    d="M15.0376 11.7797H7.01751C6.60648 11.7797 6.26562 11.4388 6.26562 11.0278C6.26562 10.6167 6.60648 10.2759 7.01751 10.2759H15.0376C15.4487 10.2759 15.7895 10.6167 15.7895 11.0278C15.7895 11.4388 15.4487 11.7797 15.0376 11.7797Z"
    fill="#121212" />
  <path
    d="M12.0301 15.7897H7.01751C6.60648 15.7897 6.26562 15.4488 6.26562 15.0378C6.26562 14.6267 6.60648 14.2859 7.01751 14.2859H12.0301C12.4411 14.2859 12.782 14.6267 12.782 15.0378C12.782 15.4488 12.4411 15.7897 12.0301 15.7897Z"
    fill="#121212" />
  <path
    d="M15.0379 22.8071H9.02284C3.3887 22.8071 2.25586 20.1505 2.25586 15.8597V9.67419C2.25586 4.92227 3.85988 2.98741 7.98022 2.75684H16.0404C20.2009 2.98741 21.8049 4.92227 21.8049 9.67419V16.0402C21.8049 16.4512 21.4641 16.792 21.053 16.792C20.642 16.792 20.3011 16.4512 20.3011 16.0402V9.67419C20.3011 5.30322 18.8475 4.42101 16.0003 4.26061H8.02032C5.21328 4.42101 3.75963 5.30322 3.75963 9.67419V15.8597C3.75963 19.6993 4.49147 21.3034 9.02284 21.3034H15.0379C15.449 21.3034 15.7898 21.6442 15.7898 22.0553C15.7898 22.4663 15.449 22.8071 15.0379 22.8071Z"
    fill="#121212" />
  <path
    d="M15.038 22.8072C14.9378 22.8072 14.8475 22.7871 14.7473 22.747C14.4666 22.6267 14.2861 22.3561 14.2861 22.0553V19.0478C14.2861 16.6217 15.6195 15.2883 18.0456 15.2883H21.0531C21.3539 15.2883 21.6346 15.4688 21.7448 15.7495C21.8651 16.0302 21.795 16.351 21.5844 16.5716L15.5694 22.5866C15.429 22.727 15.2385 22.8072 15.038 22.8072ZM18.0456 16.7921C16.4616 16.7921 15.7899 17.4638 15.7899 19.0478V20.2408L19.2386 16.7921H18.0456Z"
    fill="#121212" />
</svg>
