<svg xmlns="http://www.w3.org/2000/svg" width="25" height="25" viewBox="0 0 25 25" fill="none">
  <path
    d="M22.0551 9.2733H2.00482C1.59378 9.2733 1.25293 8.93245 1.25293 8.52142C1.25293 8.11039 1.59378 7.76953 2.00482 7.76953H22.0551C22.4662 7.76953 22.807 8.11039 22.807 8.52142C22.807 8.93245 22.4662 9.2733 22.0551 9.2733Z"
    fill="#121212" />
  <path
    d="M8.02059 17.2933H6.01556C5.60453 17.2933 5.26367 16.9525 5.26367 16.5414C5.26367 16.1304 5.60453 15.7896 6.01556 15.7896H8.02059C8.43162 15.7896 8.77247 16.1304 8.77247 16.5414C8.77247 16.9525 8.43162 17.2933 8.02059 17.2933Z"
    fill="#121212" />
  <path
    d="M14.5364 17.2933H10.5263C10.1153 17.2933 9.77441 16.9525 9.77441 16.5414C9.77441 16.1304 10.1153 15.7896 10.5263 15.7896H14.5364C14.9474 15.7896 15.2882 16.1304 15.2882 16.5414C15.2882 16.9525 14.9474 17.2933 14.5364 17.2933Z"
    fill="#121212" />
  <path
    d="M17.604 21.3034H6.45598C2.46597 21.3034 1.25293 20.1003 1.25293 16.1504V7.90976C1.25293 3.95985 2.46597 2.75684 6.45598 2.75684H17.5939C21.5839 2.75684 22.797 3.95985 22.797 7.90976V16.1404C22.807 20.1003 21.594 21.3034 17.604 21.3034ZM6.45598 4.26061C3.30809 4.26061 2.7567 4.80197 2.7567 7.90976V16.1404C2.7567 19.2482 3.30809 19.7896 6.45598 19.7896H17.5939C20.7418 19.7896 21.2932 19.2482 21.2932 16.1404V7.90976C21.2932 4.80197 20.7418 4.26061 17.5939 4.26061H6.45598Z"
    fill="#121212" />
</svg>
