<svg xmlns="http://www.w3.org/2000/svg" width="48" height="48" viewBox="0 0 48 48" fill="none">
  <path
    d="M34 42L37.6 45.54C38.6 46.54 40 45.74 40 44.56V36L45.6 29.2C45.8229 28.9029 45.9586 28.5495 45.9919 28.1796C46.0253 27.8097 45.955 27.4378 45.7889 27.1056C45.6227 26.7734 45.3674 26.494 45.0515 26.2987C44.7355 26.1034 44.3714 26 44 26H30C28.4 26 27.4 28 28.4 29.2L34 36V42ZM30 40H4V34C4 28.6 14.6 26 20 26C21.2 26 22.6 26.2 24.2 26.4C23.8 27.6 24 29 24.4 30.2C23 30 21.4 29.8 20 29.8C14 29.8 7.8 32.8 7.8 34V36.2H29L30 37.4V40ZM20 8C15.6 8 12 11.6 12 16C12 20.4 15.6 24 20 24C24.4 24 28 20.4 28 16C28 11.6 24.4 8 20 8ZM20 20C17.8 20 16 18.2 16 16C16 13.8 17.8 12 20 12C22.2 12 24 13.8 24 16C24 18.2 22.2 20 20 20Z"
    fill="#E07706" />
</svg>