<svg width="27" height="27" viewBox="0 0 27 27" fill="none" xmlns="http://www.w3.org/2000/svg">
<path d="M16.8757 25.5936H10.1257C8.64071 25.5936 7.40321 25.4473 6.35696 25.1323C5.97446 25.0198 5.72696 24.6486 5.74946 24.2548C6.03071 20.8911 9.43946 18.2472 13.5007 18.2472C17.5619 18.2472 20.9594 20.8798 21.2519 24.2548C21.2857 24.6598 21.0382 25.0198 20.6444 25.1323C19.5982 25.4473 18.3607 25.5936 16.8757 25.5936ZM7.56071 23.6923C8.30321 23.8386 9.14696 23.9061 10.1257 23.9061H16.8757C17.8544 23.9061 18.6982 23.8386 19.4407 23.6923C18.8444 21.5323 16.3807 19.9347 13.5007 19.9347C10.6207 19.9347 8.15696 21.5323 7.56071 23.6923Z" fill="#888888"/>
<path d="M16.875 2.25H10.125C4.5 2.25 2.25 4.5 2.25 10.125V16.875C2.25 21.1275 3.5325 23.4563 6.5925 24.3225C6.84 21.3975 9.84375 19.0912 13.5 19.0912C17.1562 19.0912 20.16 21.3975 20.4075 24.3225C23.4675 23.4563 24.75 21.1275 24.75 16.875V10.125C24.75 4.5 22.5 2.25 16.875 2.25ZM13.5 15.9413C11.2725 15.9413 9.4725 14.13 9.4725 11.9025C9.4725 9.67502 11.2725 7.875 13.5 7.875C15.7275 7.875 17.5275 9.67502 17.5275 11.9025C17.5275 14.13 15.7275 15.9413 13.5 15.9413Z" stroke="#888888" stroke-width="1.5" stroke-linecap="round" stroke-linejoin="round"/>
<path d="M13.5001 16.785C10.8114 16.785 8.62891 14.5913 8.62891 11.9025C8.62891 9.21377 10.8114 7.03125 13.5001 7.03125C16.1889 7.03125 18.3714 9.21377 18.3714 11.9025C18.3714 14.5913 16.1889 16.785 13.5001 16.785ZM13.5001 8.71875C11.7451 8.71875 10.3164 10.1475 10.3164 11.9025C10.3164 13.6687 11.7451 15.0975 13.5001 15.0975C15.2551 15.0975 16.6839 13.6687 16.6839 11.9025C16.6839 10.1475 15.2551 8.71875 13.5001 8.71875Z" fill="#888888"/>
</svg>
