<svg width="27" height="27" viewBox="0 0 27 27" fill="none" xmlns="http://www.w3.org/2000/svg">
<path d="M12.0956 18.9679V21.2516C12.0956 23.1866 10.2955 24.7504 8.07928 24.7504C5.86303 24.7504 4.05176 23.1866 4.05176 21.2516V18.9679C4.05176 20.9029 5.85178 22.2754 8.07928 22.2754C10.2955 22.2754 12.0956 20.8916 12.0956 18.9679Z" stroke="#888888" stroke-width="1.5" stroke-linecap="round" stroke-linejoin="round"/>
<path d="M12.0941 15.8737C12.0941 16.4362 11.9366 16.9537 11.6666 17.4037C11.0028 18.495 9.64151 19.1812 8.06651 19.1812C6.49151 19.1812 5.13025 18.4837 4.4665 17.4037C4.1965 16.9537 4.03906 16.4362 4.03906 15.8737C4.03906 14.9062 4.48904 14.04 5.20904 13.41C5.94029 12.7687 6.94149 12.3862 8.05524 12.3862C9.16899 12.3862 10.1703 12.78 10.9015 13.41C11.6441 14.0287 12.0941 14.9062 12.0941 15.8737Z" stroke="#888888" stroke-width="1.5" stroke-linecap="round" stroke-linejoin="round"/>
<path d="M12.0956 15.8737V18.9675C12.0956 20.9025 10.2955 22.275 8.07928 22.275C5.86303 22.275 4.05176 20.8913 4.05176 18.9675V15.8737C4.05176 13.9387 5.85178 12.375 8.07928 12.375C9.19303 12.375 10.1943 12.7687 10.9256 13.3987C11.6456 14.0287 12.0956 14.9062 12.0956 15.8737Z" stroke="#888888" stroke-width="1.5" stroke-linecap="round" stroke-linejoin="round"/>
<path d="M24.7498 12.3412V14.6588C24.7498 15.2775 24.2548 15.7837 23.6248 15.8062H21.4196C20.2046 15.8062 19.091 14.9174 18.9898 13.7024C18.9223 12.9937 19.1921 12.3299 19.6646 11.8687C20.0809 11.4412 20.6548 11.1937 21.2848 11.1937H23.6248C24.2548 11.2162 24.7498 11.7224 24.7498 12.3412Z" stroke="#888888" stroke-width="1.5" stroke-linecap="round" stroke-linejoin="round"/>
<path d="M2.25 11.8125V9.5625C2.25 6.5025 4.095 4.365 6.96375 4.005C7.25625 3.96 7.56 3.9375 7.875 3.9375H18C18.2925 3.9375 18.5738 3.94874 18.8438 3.99374C21.7462 4.33124 23.625 6.48 23.625 9.5625V11.1938H21.285C20.655 11.1938 20.0812 11.4413 19.665 11.8688C19.1925 12.33 18.9225 12.9938 18.99 13.7025C19.0912 14.9175 20.205 15.8063 21.42 15.8063H23.625V17.4375C23.625 20.8125 21.375 23.0625 18 23.0625H15.1875" stroke="#888888" stroke-width="1.5" stroke-linecap="round" stroke-linejoin="round"/>
</svg>
