<svg xmlns="http://www.w3.org/2000/svg" width="27" height="27" viewBox="0 0 27 27" fill="none">
  <path
    d="M15.75 13.7813C14.9156 13.7813 14.1 13.5338 13.4062 13.0703C12.7124 12.6067 12.1717 11.9478 11.8524 11.1769C11.5331 10.4061 11.4495 9.55782 11.6123 8.73946C11.7751 7.92111 12.1769 7.1694 12.7669 6.5794C13.3569 5.98939 14.1086 5.5876 14.927 5.42481C15.7453 5.26203 16.5936 5.34558 17.3644 5.66489C18.1353 5.98419 18.7942 6.52492 19.2578 7.21869C19.7213 7.91246 19.9688 8.72811 19.9688 9.5625C19.9688 10.6814 19.5243 11.7544 18.7331 12.5456C17.9419 13.3368 16.8689 13.7813 15.75 13.7813ZM15.75 7.03125C15.2494 7.03125 14.76 7.17971 14.3437 7.45784C13.9275 7.73598 13.603 8.13131 13.4114 8.59383C13.2198 9.05636 13.1697 9.56531 13.2674 10.0563C13.3651 10.5473 13.6061 10.9984 13.9601 11.3524C14.3141 11.7064 14.7652 11.9474 15.2562 12.0451C15.7472 12.1428 16.2561 12.0927 16.7187 11.9011C17.1812 11.7095 17.5765 11.3851 17.8547 10.9688C18.1328 10.5525 18.2812 10.0631 18.2812 9.5625C18.2812 8.89117 18.0146 8.24734 17.5399 7.77264C17.0652 7.29794 16.4213 7.03125 15.75 7.03125ZM23.625 21.6563C23.4021 21.6533 23.1892 21.5635 23.0316 21.4059C22.874 21.2483 22.7842 21.0354 22.7812 20.8125C22.7812 18.6188 21.5888 17.1563 15.75 17.1563C9.91125 17.1563 8.71875 18.6188 8.71875 20.8125C8.71875 21.0363 8.62986 21.2509 8.47162 21.4091C8.31339 21.5674 8.09878 21.6563 7.875 21.6563C7.65122 21.6563 7.43661 21.5674 7.27838 21.4091C7.12014 21.2509 7.03125 21.0363 7.03125 20.8125C7.03125 15.4688 13.14 15.4688 15.75 15.4688C18.36 15.4688 24.4688 15.4688 24.4688 20.8125C24.4658 21.0354 24.376 21.2483 24.2184 21.4059C24.0608 21.5635 23.8479 21.6533 23.625 21.6563ZM9.36 14.6925H9C8.10489 14.606 7.28082 14.1674 6.70907 13.4733C6.13732 12.7792 5.86472 11.8864 5.95125 10.9913C6.03778 10.0961 6.47634 9.27207 7.17046 8.70032C7.86458 8.12857 8.75739 7.85597 9.6525 7.9425C9.76727 7.94743 9.87983 7.97575 9.98327 8.02572C10.0867 8.07569 10.1789 8.14625 10.2541 8.23309C10.3293 8.31993 10.386 8.42121 10.4206 8.53072C10.4553 8.64024 10.4673 8.75569 10.4558 8.86999C10.4443 8.98429 10.4095 9.09503 10.3537 9.19544C10.2979 9.29585 10.2222 9.3838 10.1312 9.4539C10.0402 9.524 9.93579 9.57479 9.82447 9.60313C9.71314 9.63148 9.5972 9.63679 9.48375 9.61875C9.26414 9.59685 9.04237 9.61944 8.83168 9.68516C8.621 9.75088 8.42571 9.85838 8.2575 10.0013C8.08664 10.1391 7.94493 10.3095 7.84063 10.5027C7.73633 10.6958 7.67153 10.9078 7.65 11.1263C7.62674 11.3474 7.64773 11.5711 7.71174 11.7841C7.77576 11.9971 7.88153 12.1952 8.02288 12.3669C8.16423 12.5386 8.33835 12.6805 8.53507 12.7842C8.7318 12.888 8.94721 12.9516 9.16875 12.9713C9.53498 13.0026 9.90162 12.9158 10.215 12.7238C10.406 12.6059 10.6359 12.5687 10.8543 12.6204C11.0726 12.6721 11.2615 12.8084 11.3794 12.9994C11.4972 13.1903 11.5344 13.4203 11.4827 13.6386C11.431 13.857 11.2947 14.0459 11.1038 14.1638C10.582 14.4965 9.97873 14.6795 9.36 14.6925ZM3.375 20.8125C3.15213 20.8096 2.93921 20.7198 2.7816 20.5622C2.62399 20.4045 2.53416 20.1916 2.53125 19.9688C2.53125 16.9313 3.34125 14.9063 7.3125 14.9063C7.53628 14.9063 7.75089 14.9951 7.90912 15.1534C8.06736 15.3116 8.15625 15.5262 8.15625 15.75C8.15625 15.9738 8.06736 16.1884 7.90912 16.3466C7.75089 16.5049 7.53628 16.5938 7.3125 16.5938C4.66875 16.5938 4.21875 17.4375 4.21875 19.9688C4.21584 20.1916 4.12601 20.4045 3.9684 20.5622C3.81079 20.7198 3.59787 20.8096 3.375 20.8125Z"
    fill="#888888" />
</svg>