<svg width="27" height="27" viewBox="0 0 27 27" fill="none" xmlns="http://www.w3.org/2000/svg">
<path d="M16.875 25.5938H10.125C4.01625 25.5938 1.40625 22.9837 1.40625 16.875V10.125C1.40625 4.01625 4.01625 1.40625 10.125 1.40625H16.875C22.9837 1.40625 25.5938 4.01625 25.5938 10.125V16.875C25.5938 22.9837 22.9837 25.5938 16.875 25.5938ZM10.125 3.09375C4.93875 3.09375 3.09375 4.93875 3.09375 10.125V16.875C3.09375 22.0613 4.93875 23.9062 10.125 23.9062H16.875C22.0613 23.9062 23.9062 22.0613 23.9062 16.875V10.125C23.9062 4.93875 22.0613 3.09375 16.875 3.09375H10.125Z" fill="#888888"/>
<path d="M13.5004 14.7147C13.3542 14.7147 13.2079 14.6809 13.0729 14.6022L7.11045 11.1597C6.70545 10.9234 6.57042 10.4059 6.80667 10.0122C7.04292 9.60716 7.56045 9.47216 7.9542 9.70841L13.4892 12.9147L18.9904 9.73091C19.3954 9.49466 19.9129 9.64091 20.1379 10.0347C20.3629 10.4284 20.2279 10.9572 19.8342 11.1822L13.9167 14.6022C13.7929 14.6697 13.6467 14.7147 13.5004 14.7147Z" fill="#888888"/>
<path d="M13.5 20.8351C13.0388 20.8351 12.6562 20.4526 12.6562 19.9913V13.8713C12.6562 13.4101 13.0388 13.0276 13.5 13.0276C13.9612 13.0276 14.3438 13.4101 14.3438 13.8713V19.9913C14.3438 20.4526 13.9612 20.8351 13.5 20.8351Z" fill="#888888"/>
<path d="M13.5005 21.0935C12.848 21.0935 12.2068 20.9473 11.6893 20.666L8.08928 18.6635C7.00928 18.0673 6.17676 16.6385 6.17676 15.401V11.5873C6.17676 10.361 7.02053 8.93228 8.08928 8.32478L11.6893 6.32228C12.7243 5.74853 14.2767 5.74853 15.3117 6.32228L18.9117 8.32478C19.9917 8.92103 20.8243 10.3498 20.8243 11.5873V15.401C20.8243 16.6273 19.9805 18.056 18.9117 18.6635L15.3117 20.666C14.7942 20.9585 14.153 21.0935 13.5005 21.0935ZM13.5005 7.59353C13.1292 7.59353 12.7692 7.66103 12.5105 7.80728L8.91054 9.80978C8.35929 10.1135 7.86426 10.9685 7.86426 11.5873V15.401C7.86426 16.031 8.35929 16.8748 8.91054 17.1785L12.5105 19.181C13.028 19.4735 13.973 19.4735 14.4905 19.181L18.0905 17.1785C18.6417 16.8748 19.1368 16.0198 19.1368 15.401V11.5873C19.1368 10.9573 18.6417 10.1135 18.0905 9.80978L14.4905 7.80728C14.2317 7.66103 13.8717 7.59353 13.5005 7.59353Z" fill="#888888"/>
</svg>
