<svg width="27" height="27" viewBox="0 0 27 27" fill="none" xmlns="http://www.w3.org/2000/svg">
<path d="M22.5345 8.6843L16.6282 2.77805C16.5498 2.69972 16.4567 2.63761 16.3543 2.59526C16.2519 2.55291 16.1421 2.53116 16.0312 2.53125H5.90625C5.4587 2.53125 5.02947 2.70904 4.71301 3.02551C4.39654 3.34198 4.21875 3.7712 4.21875 4.21875V22.7812C4.21875 23.2288 4.39654 23.658 4.71301 23.9745C5.02947 24.291 5.4587 24.4688 5.90625 24.4688H21.0938C21.5413 24.4688 21.9705 24.291 22.287 23.9745C22.6035 23.658 22.7812 23.2288 22.7812 22.7812V9.28125C22.7813 9.17041 22.7596 9.06065 22.7172 8.95822C22.6749 8.85579 22.6128 8.76271 22.5345 8.6843ZM16.875 5.4116L19.9009 8.4375H16.875V5.4116ZM21.0938 22.7812H5.90625V4.21875H15.1875V9.28125C15.1875 9.50503 15.2764 9.71964 15.4346 9.87787C15.5929 10.0361 15.8075 10.125 16.0312 10.125H21.0938V22.7812ZM17.7188 14.3438C17.7188 14.5675 17.6299 14.7821 17.4716 14.9404C17.3134 15.0986 17.0988 15.1875 16.875 15.1875H10.125C9.90122 15.1875 9.68661 15.0986 9.52838 14.9404C9.37014 14.7821 9.28125 14.5675 9.28125 14.3438C9.28125 14.12 9.37014 13.9054 9.52838 13.7471C9.68661 13.5889 9.90122 13.5 10.125 13.5H16.875C17.0988 13.5 17.3134 13.5889 17.4716 13.7471C17.6299 13.9054 17.7188 14.12 17.7188 14.3438ZM17.7188 17.7188C17.7188 17.9425 17.6299 18.1571 17.4716 18.3154C17.3134 18.4736 17.0988 18.5625 16.875 18.5625H10.125C9.90122 18.5625 9.68661 18.4736 9.52838 18.3154C9.37014 18.1571 9.28125 17.9425 9.28125 17.7188C9.28125 17.495 9.37014 17.2804 9.52838 17.1221C9.68661 16.9639 9.90122 16.875 10.125 16.875H16.875C17.0988 16.875 17.3134 16.9639 17.4716 17.1221C17.6299 17.2804 17.7188 17.495 17.7188 17.7188Z" fill="#888888"/>
</svg>
