<svg width="27" height="27" viewBox="0 0 27 27" fill="none" xmlns="http://www.w3.org/2000/svg">
<path d="M13.5 25.5941C12.7913 25.5941 12.1275 25.3242 11.6325 24.818L9.92251 23.108C9.78751 22.973 9.4275 22.8267 9.2475 22.8267H6.8175C5.355 22.8267 4.17374 21.6453 4.17374 20.1828V17.753C4.17374 17.573 4.02749 17.213 3.89249 17.078L2.1825 15.368C1.6875 14.873 1.40625 14.2091 1.40625 13.5003C1.40625 12.7916 1.67625 12.1278 2.1825 11.6328L3.89249 9.92282C4.02749 9.78782 4.17374 9.42784 4.17374 9.24784V6.81794C4.17374 5.35544 5.355 4.17408 6.8175 4.17408H9.2475C9.4275 4.17408 9.78751 4.02783 9.92251 3.89283L11.6325 2.18281C12.6225 1.19281 14.3775 1.19281 15.3675 2.18281L17.0775 3.89283C17.2125 4.02783 17.5725 4.17408 17.7525 4.17408H20.1825C21.645 4.17408 22.8263 5.35544 22.8263 6.81794V9.24784C22.8263 9.42784 22.9725 9.78782 23.1075 9.92282L24.8175 11.6328C25.3125 12.1278 25.5938 12.7916 25.5938 13.5003C25.5938 14.2091 25.3237 14.873 24.8175 15.368L23.1075 17.078C22.9725 17.213 22.8263 17.573 22.8263 17.753V20.1828C22.8263 21.6453 21.645 22.8267 20.1825 22.8267H17.7525C17.5725 22.8267 17.2125 22.973 17.0775 23.108L15.3675 24.818C14.8725 25.3242 14.2087 25.5941 13.5 25.5941ZM5.08499 15.8853C5.53499 16.3353 5.86124 17.123 5.86124 17.753V20.1828C5.86124 20.7116 6.28875 21.1392 6.8175 21.1392H9.2475C9.8775 21.1392 10.665 21.4653 11.115 21.9153L12.825 23.6253C13.185 23.9853 13.815 23.9853 14.175 23.6253L15.885 21.9153C16.335 21.4653 17.1225 21.1392 17.7525 21.1392H20.1825C20.7113 21.1392 21.1388 20.7116 21.1388 20.1828V17.753C21.1388 17.123 21.465 16.3353 21.915 15.8853L23.625 14.1753C23.805 13.9953 23.9062 13.7591 23.9062 13.5003C23.9062 13.2416 23.805 13.0055 23.625 12.8255L21.915 11.1154C21.465 10.6654 21.1388 9.87784 21.1388 9.24784V6.81794C21.1388 6.28919 20.7113 5.86158 20.1825 5.86158H17.7525C17.1225 5.86158 16.335 5.5354 15.885 5.0854L14.175 3.37538C13.815 3.01538 13.185 3.01538 12.825 3.37538L11.115 5.0854C10.665 5.5354 9.8775 5.86158 9.2475 5.86158H6.8175C6.28875 5.86158 5.86124 6.28919 5.86124 6.81794V9.24784C5.86124 9.87784 5.53499 10.6654 5.08499 11.1154L3.375 12.8255C3.195 13.0055 3.09375 13.2416 3.09375 13.5003C3.09375 13.7591 3.195 13.9953 3.375 14.1753L5.08499 15.8853Z" fill="#888888"/>
<path d="M16.8755 18C16.2455 18 15.7393 17.4938 15.7393 16.875C15.7393 16.2562 16.2455 15.75 16.8643 15.75C17.483 15.75 17.9893 16.2562 17.9893 16.875C17.9893 17.4938 17.4943 18 16.8755 18Z" fill="#888888"/>
<path d="M10.1363 11.25C9.50626 11.25 9 10.7438 9 10.125C9 9.50625 9.50625 9 10.125 9C10.7438 9 11.25 9.50625 11.25 10.125C11.25 10.7438 10.755 11.25 10.1363 11.25Z" fill="#888888"/>
<path d="M10.1241 17.7182C9.91039 17.7182 9.69664 17.6394 9.52789 17.4707C9.20164 17.1444 9.20164 16.6044 9.52789 16.2782L16.2779 9.52813C16.6042 9.20188 17.1442 9.20188 17.4704 9.52813C17.7967 9.85438 17.7967 10.3945 17.4704 10.7207L10.7204 17.4707C10.5516 17.6394 10.3379 17.7182 10.1241 17.7182Z" fill="#888888"/>
</svg>
