<svg width="27" height="27" viewBox="0 0 27 27" fill="none" xmlns="http://www.w3.org/2000/svg">
<path d="M13.4999 8.43748C12.4986 8.43748 11.5198 8.73439 10.6873 9.29067C9.8548 9.84694 9.20592 10.6376 8.82276 11.5626C8.43959 12.4877 8.33933 13.5056 8.53467 14.4876C8.73001 15.4697 9.21216 16.3717 9.92017 17.0797C10.6282 17.7877 11.5302 18.2699 12.5123 18.4652C13.4943 18.6605 14.5122 18.5603 15.4372 18.1771C16.3623 17.794 17.1529 17.1451 17.7092 16.3126C18.2655 15.48 18.5624 14.5012 18.5624 13.5C18.561 12.1578 18.0272 10.8709 17.0781 9.92179C16.129 8.97269 14.8421 8.43888 13.4999 8.43748ZM13.4999 16.875C12.8324 16.875 12.1799 16.677 11.6248 16.3062C11.0698 15.9353 10.6372 15.4082 10.3818 14.7915C10.1264 14.1748 10.0595 13.4962 10.1897 12.8416C10.32 12.1869 10.6414 11.5855 11.1134 11.1135C11.5854 10.6415 12.1868 10.3201 12.8415 10.1898C13.4962 10.0596 14.1748 10.1264 14.7915 10.3819C15.4082 10.6373 15.9353 11.0699 16.3061 11.6249C16.677 12.1799 16.8749 12.8325 16.8749 13.5C16.8749 14.3951 16.5193 15.2535 15.8864 15.8865C15.2534 16.5194 14.395 16.875 13.4999 16.875ZM25.0951 11.3073C25.0716 11.1885 25.0228 11.0761 24.952 10.9778C24.8812 10.8796 24.7901 10.7977 24.6849 10.7378L21.5387 8.94478L21.5261 5.39892C21.5257 5.27681 21.4988 5.15623 21.4473 5.04551C21.3957 4.9348 21.3208 4.83659 21.2276 4.75768C20.0863 3.79232 18.7721 3.05253 17.3548 2.57764C17.2432 2.53986 17.1249 2.52588 17.0075 2.53659C16.8902 2.54731 16.7764 2.58249 16.6735 2.63986L13.4999 4.41385L10.3232 2.6367C10.2202 2.579 10.1062 2.54356 9.9887 2.53266C9.87116 2.52176 9.75263 2.53564 9.64079 2.57342C8.2245 3.05178 6.91178 3.79439 5.7722 4.76189C5.67914 4.8407 5.60427 4.93873 5.55274 5.04925C5.50122 5.15977 5.47426 5.28015 5.47372 5.40209L5.4579 8.95111L2.31177 10.7441C2.20651 10.804 2.11539 10.8859 2.0446 10.9842C1.97381 11.0824 1.925 11.1948 1.9015 11.3136C1.61356 12.7605 1.61356 14.25 1.9015 15.6969C1.925 15.8157 1.97381 15.9281 2.0446 16.0263C2.11539 16.1246 2.20651 16.2065 2.31177 16.2664L5.4579 18.0594L5.47056 21.6053C5.47094 21.7274 5.49783 21.848 5.54936 21.9587C5.60089 22.0694 5.67584 22.1676 5.76904 22.2465C6.91028 23.2119 8.22451 23.9517 9.64185 24.4265C9.75346 24.4643 9.87176 24.4783 9.9891 24.4676C10.1065 24.4569 10.2203 24.4217 10.3232 24.3643L13.4999 22.5861L16.6766 24.3633C16.8023 24.4333 16.944 24.4696 17.0879 24.4687C17.1801 24.4687 17.2716 24.4537 17.359 24.4244C18.7751 23.9467 20.0878 23.2048 21.2276 22.2381C21.3206 22.1593 21.3955 22.0612 21.447 21.9507C21.4986 21.8402 21.5255 21.7198 21.5261 21.5979L21.5419 18.0488L24.688 16.2559C24.7933 16.196 24.8844 16.1141 24.9552 16.0158C25.026 15.9175 25.0748 15.8052 25.0983 15.6863C25.3846 14.2406 25.3835 12.7526 25.0951 11.3073ZM23.5131 14.9892L20.4999 16.7031C20.3678 16.7781 20.2585 16.8874 20.1835 17.0195C20.1223 17.1249 20.0579 17.2367 19.9926 17.3422C19.9088 17.4752 19.8643 17.6291 19.8639 17.7862L19.8481 21.1876C19.0381 21.8236 18.1358 22.3322 17.1723 22.6958L14.1327 21.002C14.0065 20.9322 13.8645 20.8958 13.7203 20.8965H13.7003C13.5727 20.8965 13.444 20.8965 13.3164 20.8965C13.1654 20.8927 13.0162 20.9291 12.884 21.002L9.84224 22.7C8.87668 22.3392 7.97188 21.8331 7.15911 21.1992L7.14751 17.8031C7.14699 17.6456 7.10242 17.4915 7.01884 17.358C6.95345 17.2526 6.88911 17.1471 6.829 17.0353C6.75446 16.9012 6.64515 16.7897 6.51259 16.7126L3.49618 14.9945C3.34009 14.0071 3.34009 13.0013 3.49618 12.0139L6.50415 10.2969C6.63618 10.2218 6.74549 10.1125 6.82056 9.98049C6.88173 9.87502 6.94607 9.76322 7.01146 9.65775C7.09516 9.52475 7.13975 9.37088 7.14013 9.21373L7.15595 5.81236C7.96587 5.17633 8.86819 4.66773 9.83169 4.30416L12.8671 5.99799C12.9992 6.07121 13.1485 6.10764 13.2995 6.10346C13.4271 6.10346 13.5558 6.10346 13.6834 6.10346C13.8344 6.10723 13.9836 6.07083 14.1158 5.99799L17.1576 4.29994C18.1231 4.66072 19.0279 5.16683 19.8407 5.80076L19.8523 9.19685C19.8528 9.35431 19.8974 9.50849 19.981 9.64193C20.0463 9.7474 20.1107 9.85287 20.1708 9.96467C20.2453 10.0987 20.3546 10.2102 20.4872 10.2874L23.5036 12.0055C23.6618 12.9936 23.6636 14.0005 23.5089 14.9892H23.5131Z" fill="#888888"/>
</svg>
