<svg xmlns="http://www.w3.org/2000/svg" width="24" height="24" viewBox="0 0 24 24" fill="none">
  <path
    d="M18.75 22.5001H12.75C12.5511 22.5001 12.3603 22.421 12.2197 22.2804C12.079 22.1397 12 21.949 12 21.7501C12 21.5511 12.079 21.3604 12.2197 21.2197C12.3603 21.0791 12.5511 21.0001 12.75 21.0001H16.9397L9.21937 13.2807C9.14964 13.211 9.09432 13.1283 9.05658 13.0373C9.01884 12.9462 8.99941 12.8486 8.99941 12.7501C8.99941 12.6515 9.01884 12.5539 9.05658 12.4628C9.09432 12.3718 9.14964 12.2891 9.21937 12.2194L12.4397 9.00005L6.21937 2.78068C6.07864 2.63995 5.99958 2.44907 5.99958 2.25005C5.99958 2.05103 6.07864 1.86016 6.21937 1.71943C6.3601 1.5787 6.55098 1.49963 6.75 1.49963C6.94902 1.49963 7.13989 1.5787 7.28062 1.71943L14.0306 8.46943C14.1004 8.53908 14.1557 8.6218 14.1934 8.71285C14.2312 8.80389 14.2506 8.90149 14.2506 9.00005C14.2506 9.09861 14.2312 9.19621 14.1934 9.28726C14.1557 9.3783 14.1004 9.46102 14.0306 9.53068L10.8103 12.7501L18 19.9397V15.7501C18 15.5511 18.079 15.3604 18.2197 15.2197C18.3603 15.0791 18.5511 15.0001 18.75 15.0001C18.9489 15.0001 19.1397 15.0791 19.2803 15.2197C19.421 15.3604 19.5 15.5511 19.5 15.7501V21.7501C19.5 21.949 19.421 22.1397 19.2803 22.2804C19.1397 22.421 18.9489 22.5001 18.75 22.5001Z"
    fill="#E11D48" />
</svg>