<svg width="24" height="24" viewBox="0 0 24 24" fill="none" xmlns="http://www.w3.org/2000/svg">
<path d="M12.5 3C9.98121 3.00265 7.56639 4.00439 5.78536 5.78541C4.00434 7.56643 3.0026 9.98126 2.99995 12.5C2.99103 14.8472 3.86154 17.1127 5.43995 18.85L3.14995 21.15C3.07711 21.217 3.02726 21.3052 3.00751 21.4022C2.98775 21.4991 2.99911 21.5999 3.03995 21.69C3.07746 21.7813 3.14116 21.8595 3.22302 21.9146C3.30488 21.9698 3.40124 21.9995 3.49995 22H12.5C15.0195 22 17.4359 20.9991 19.2175 19.2175C20.9991 17.4359 22 15.0196 22 12.5C22 9.98044 20.9991 7.56408 19.2175 5.78249C17.4359 4.00089 15.0195 3 12.5 3ZM8.49995 14.5C8.30217 14.5 8.10883 14.4414 7.94438 14.3315C7.77993 14.2216 7.65176 14.0654 7.57607 13.8827C7.50039 13.7 7.48058 13.4989 7.51917 13.3049C7.55775 13.1109 7.65299 12.9327 7.79285 12.7929C7.9327 12.653 8.11088 12.5578 8.30486 12.5192C8.49884 12.4806 8.69991 12.5004 8.88264 12.5761C9.06536 12.6518 9.22154 12.78 9.33142 12.9444C9.4413 13.1089 9.49995 13.3022 9.49995 13.5C9.49995 13.7652 9.3946 14.0196 9.20706 14.2071C9.01952 14.3946 8.76517 14.5 8.49995 14.5ZM12.5 14.5C12.3022 14.5 12.1088 14.4414 11.9444 14.3315C11.7799 14.2216 11.6518 14.0654 11.5761 13.8827C11.5004 13.7 11.4806 13.4989 11.5192 13.3049C11.5578 13.1109 11.653 12.9327 11.7928 12.7929C11.9327 12.653 12.1109 12.5578 12.3049 12.5192C12.4988 12.4806 12.6999 12.5004 12.8826 12.5761C13.0654 12.6518 13.2215 12.78 13.3314 12.9444C13.4413 13.1089 13.5 13.3022 13.5 13.5C13.5 13.7652 13.3946 14.0196 13.2071 14.2071C13.0195 14.3946 12.7652 14.5 12.5 14.5ZM16.5 14.5C16.3022 14.5 16.1088 14.4414 15.9444 14.3315C15.7799 14.2216 15.6518 14.0654 15.5761 13.8827C15.5004 13.7 15.4806 13.4989 15.5192 13.3049C15.5578 13.1109 15.653 12.9327 15.7928 12.7929C15.9327 12.653 16.1109 12.5578 16.3049 12.5192C16.4988 12.4806 16.6999 12.5004 16.8826 12.5761C17.0654 12.6518 17.2215 12.78 17.3314 12.9444C17.4413 13.1089 17.5 13.3022 17.5 13.5C17.5 13.7652 17.3946 14.0196 17.2071 14.2071C17.0195 14.3946 16.7652 14.5 16.5 14.5Z" fill="#3A3A3A"/>
</svg>
