<?xml version="1.0" encoding="UTF-8"?>
<svg version="1.1" xmlns="http://www.w3.org/2000/svg" width="160" height="160">
<path d="M0 0 C1.05549545 -0.00852997 2.11099091 -0.01705994 3.19847107 -0.02584839 C4.34611938 -0.02494202 5.4937677 -0.02403564 6.67619324 -0.02310181 C7.89302292 -0.02981903 9.1098526 -0.03653625 10.36355591 -0.04345703 C13.69434575 -0.05918574 17.02488621 -0.06581125 20.35569596 -0.0670886 C22.43944946 -0.06851251 24.52317702 -0.07278667 26.60692406 -0.07808304 C33.88458789 -0.09657517 41.16217857 -0.10475481 48.43986511 -0.10317993 C55.21037932 -0.10197923 61.98057438 -0.12306942 68.75100785 -0.15466726 C74.57455524 -0.18087175 80.39799867 -0.19154547 86.22160453 -0.19026911 C89.69498816 -0.18976063 93.16808813 -0.19537977 96.64141273 -0.21662521 C100.51901688 -0.23969678 104.396188 -0.23046115 108.27384949 -0.21841431 C109.41542511 -0.22965332 110.55700073 -0.24089233 111.73316956 -0.25247192 C119.51371498 -0.19112457 124.89737777 0.96222885 130.91130066 6.23226929 C131.45012878 6.88324585 131.98895691 7.53422241 132.54411316 8.20492554 C133.09841003 8.85332397 133.65270691 9.50172241 134.22380066 10.16976929 C136.99088147 14.18577576 137.91878011 17.7546864 137.9365387 22.59831238 C137.94933365 24.18155556 137.94933365 24.18155556 137.96238708 25.79678345 C137.96102753 27.51825592 137.96102753 27.51825592 137.9596405 29.27450562 C137.96635773 30.4913353 137.97307495 31.70816498 137.97999573 32.96186829 C137.99572444 36.29265813 138.00234995 39.62319859 138.0036273 42.95400834 C138.00505121 45.03776184 138.00932537 47.12148939 138.01462173 49.20523643 C138.03311386 56.48290027 138.04129351 63.76049094 138.03971863 71.03817749 C138.03851792 77.80869169 138.05960812 84.57888675 138.09120595 91.34932023 C138.11741044 97.17286762 138.12808416 102.99631105 138.12680781 108.8199169 C138.12629933 112.29330054 138.13191847 115.76640051 138.15316391 119.23972511 C138.17623548 123.11732926 138.16699985 126.99450038 138.154953 130.87216187 C138.16619202 132.01373749 138.17743103 133.15531311 138.18901062 134.33148193 C138.12766327 142.11202735 136.97430985 147.49569015 131.70426941 153.50961304 C131.05329285 154.04844116 130.40231628 154.58726929 129.73161316 155.14242554 C129.08321472 155.69672241 128.43481628 156.25101929 127.76676941 156.82211304 C123.75076294 159.58919385 120.1818523 160.51709249 115.33822632 160.53485107 C114.28273087 160.54338104 113.22723541 160.55191101 112.13975525 160.56069946 C110.99210693 160.55979309 109.84445862 160.55888672 108.66203308 160.55795288 C107.4452034 160.5646701 106.22837372 160.57138733 104.97467041 160.57830811 C101.64388057 160.59403681 98.31334011 160.60066233 94.98253036 160.60193968 C92.89877685 160.60336359 90.8150493 160.60763775 88.73130226 160.61293411 C81.45363843 160.63142624 74.17604775 160.63960588 66.89836121 160.63803101 C60.127847 160.6368303 53.35765194 160.6579205 46.58721846 160.68951833 C40.76367108 160.71572282 34.94022764 160.72639654 29.11662179 160.72512019 C25.64323816 160.72461171 22.17013819 160.73023085 18.69681358 160.75147629 C14.81920944 160.77454786 10.94203831 160.76531222 7.06437683 160.75326538 C5.92280121 160.76450439 4.78122559 160.77574341 3.60505676 160.787323 C-4.17548866 160.72597565 -9.55915146 159.57262223 -15.57307434 154.30258179 C-16.38131653 153.32611694 -16.38131653 153.32611694 -17.20588684 152.32992554 C-17.76018372 151.6815271 -18.31448059 151.03312866 -18.88557434 150.36508179 C-21.65265515 146.34907532 -22.58055379 142.78016468 -22.59831238 137.9365387 C-22.60684235 136.88104324 -22.61537231 135.82554779 -22.62416077 134.73806763 C-22.62325439 133.59041931 -22.62234802 132.442771 -22.62141418 131.26034546 C-22.62813141 130.04351578 -22.63484863 128.8266861 -22.64176941 127.57298279 C-22.65749812 124.24219294 -22.66412363 120.91165249 -22.66540098 117.58084273 C-22.66682489 115.49708923 -22.67109905 113.41336168 -22.67639542 111.32961464 C-22.69488754 104.05195081 -22.70306719 96.77436013 -22.70149231 89.49667358 C-22.7002916 82.72615938 -22.7213818 75.95596432 -22.75297964 69.18553084 C-22.77918412 63.36198345 -22.78985784 57.53854002 -22.78858149 51.71493417 C-22.78807301 48.24155054 -22.79369215 44.76845056 -22.81493759 41.29512596 C-22.83800916 37.41752181 -22.82877353 33.54035069 -22.81672668 29.66268921 C-22.8279657 28.52111359 -22.83920471 27.37953796 -22.8507843 26.20336914 C-22.78943695 18.42282372 -21.63608353 13.03916092 -16.36604309 7.02523804 C-15.71506653 6.48640991 -15.06408997 5.94758179 -14.39338684 5.39242554 C-13.7449884 4.83812866 -13.09658997 4.28383179 -12.42854309 3.71273804 C-8.41253662 0.94565723 -4.84362598 0.01775858 0 0 Z " fill="#CEF8E2" transform="translate(22.330886840820313,-0.267425537109375)"/>
<path d="M0 0 C8.28096694 6.0112667 15.63275256 15.15216715 17.5390625 25.45703125 C18.42738963 38.51980888 17.17706142 49.06255382 8.453125 59.45703125 C1.50118004 66.72110435 -7.60582176 71.9598112 -17.74609375 72.6953125 C-30.47583443 72.9454315 -40.06569082 70.44857592 -49.4609375 61.45703125 C-58.04292013 52.07048775 -60.98866744 41.85552782 -60.734375 29.3515625 C-60.00447144 18.95565032 -55.20936435 10.61794353 -47.51171875 3.70703125 C-33.60535906 -7.22134572 -15.38634218 -9.64699232 0 0 Z " fill="#CDF8E2" transform="translate(101.4609375,46.54296875)"/>
<path d="M0 0 C8.28096694 6.0112667 15.63275256 15.15216715 17.5390625 25.45703125 C18.42738963 38.51980888 17.17706142 49.06255382 8.453125 59.45703125 C1.50118004 66.72110435 -7.60582176 71.9598112 -17.74609375 72.6953125 C-30.47583443 72.9454315 -40.06569082 70.44857592 -49.4609375 61.45703125 C-58.04292013 52.07048775 -60.98866744 41.85552782 -60.734375 29.3515625 C-60.00447144 18.95565032 -55.20936435 10.61794353 -47.51171875 3.70703125 C-33.60535906 -7.22134572 -15.38634218 -9.64699232 0 0 Z M-47.4375 12.8203125 C-53.22759708 20.67149352 -55.37730612 27.74061472 -54.4609375 37.45703125 C-52.81597521 46.46976584 -48.75390748 54.17056698 -41.4609375 59.83203125 C-32.93247502 65.70755597 -25.16792767 67.84546612 -14.90234375 65.99609375 C-5.06673777 63.3875867 2.27618376 58.18901013 7.5390625 49.45703125 C11.47650395 41.98361297 12.91001651 33.96434938 10.85546875 25.7109375 C7.43752372 15.4854671 2.19948794 8.45863861 -7.4609375 3.45703125 C-21.92658638 -2.57032245 -37.20780855 0.58915968 -47.4375 12.8203125 Z " fill="#0E9A94" transform="translate(101.4609375,46.54296875)"/>
<path d="M0 0 C1.11846313 0.35058472 1.11846313 0.35058472 2.25952148 0.70825195 C1.60569489 7.25384779 -3.04677381 10.68610819 -7.51342773 15.11254883 C-8.98975678 16.58253332 -10.43739701 18.07723147 -11.88500977 19.57543945 C-12.8118457 20.50356445 -13.73868164 21.43168945 -14.69360352 22.38793945 C-15.96445801 23.66773682 -15.96445801 23.66773682 -17.26098633 24.97338867 C-19.74047852 26.70825195 -19.74047852 26.70825195 -22.40014648 26.59643555 C-25.48277502 25.42654168 -27.27764362 23.77309175 -29.61547852 21.45825195 C-30.41727539 20.6899707 -31.21907227 19.92168945 -32.04516602 19.13012695 C-33.74047852 16.70825195 -33.74047852 16.70825195 -33.49829102 13.91137695 C-33.24821289 13.1843457 -32.99813477 12.45731445 -32.74047852 11.70825195 C-27.90791547 12.12247164 -25.91368633 14.17239181 -22.74047852 17.70825195 C-19.46879886 16.28906319 -17.44167499 14.58420677 -15.02563477 11.9777832 C-14.33920898 11.2578418 -13.6527832 10.53790039 -12.94555664 9.79614258 C-11.51313882 8.27493313 -10.08866616 6.74620427 -8.67211914 5.21020508 C-7.9844043 4.49413086 -7.29668945 3.77805664 -6.58813477 3.0402832 C-5.96946533 2.37746338 -5.3507959 1.71464355 -4.71337891 1.03173828 C-2.74047852 -0.29174805 -2.74047852 -0.29174805 0 0 Z " fill="#109B95" transform="translate(95.740478515625,68.291748046875)"/>
</svg>
