<?xml version="1.0" encoding="UTF-8"?>
<svg version="1.1" xmlns="http://www.w3.org/2000/svg" width="58" height="44">
<path d="M0 0 C0.89912109 -0.03738281 1.79824219 -0.07476563 2.72460938 -0.11328125 C9.6182289 -0.20431951 9.6182289 -0.20431951 13.28515625 2.85546875 C17.66738843 6.50261682 21.53042417 6.08141955 27.0625 6.0625 C28.95321451 6.07904057 30.84388193 6.10338848 32.734375 6.13671875 C33.56549805 6.13631592 34.39662109 6.13591309 35.25292969 6.13549805 C37.3125 6.375 37.3125 6.375 39.3125 8.375 C39.4375 11.5 39.4375 11.5 39.3125 14.375 C40.26125 14.33375 41.21 14.2925 42.1875 14.25 C45.3125 14.375 45.3125 14.375 47.3125 16.375 C48.03633473 22.71479388 46.05498951 27.85421623 43.875 33.75 C43.54951172 34.66394531 43.22402344 35.57789063 42.88867188 36.51953125 C40.47815041 43.20934959 40.47815041 43.20934959 39.3125 44.375 C37.74702952 44.46826716 36.17737228 44.49245582 34.60913086 44.48852539 C33.60816879 44.48844986 32.60720673 44.48837433 31.57591248 44.48829651 C30.4873848 44.48313522 29.39885712 44.47797394 28.27734375 44.47265625 C27.16895645 44.4712413 26.06056915 44.46982635 24.91859436 44.46836853 C21.36236931 44.46275033 17.80620617 44.45019475 14.25 44.4375 C11.84570403 44.43248734 9.44140708 44.42792403 7.03710938 44.42382812 C1.12888496 44.41277499 -4.7793031 44.39601917 -10.6875 44.375 C-10.71214513 38.2694529 -10.73033371 32.16393449 -10.74243164 26.05834961 C-10.74747288 23.97956844 -10.75430574 21.90079084 -10.76293945 19.82202148 C-10.77501422 16.84097414 -10.78073024 13.85997351 -10.78515625 10.87890625 C-10.79289818 9.47578941 -10.79289818 9.47578941 -10.80079651 8.04432678 C-10.80087204 7.18350998 -10.80094757 6.32269318 -10.80102539 5.43579102 C-10.803246 4.67412125 -10.80546661 3.91245148 -10.80775452 3.12770081 C-10.48638239 -1.55627453 -3.5279339 0.05446635 0 0 Z M-5.6875 5.375 C-5.6875 11.315 -5.6875 17.255 -5.6875 23.375 C-3.65768897 20.52913875 -3.65768897 20.52913875 -2.55932617 17.73168945 C-0.6875 15.375 -0.6875 15.375 2.8659668 14.71557617 C4.3307276 14.67450201 5.79640231 14.66028633 7.26171875 14.66796875 C8.42064384 14.64528679 8.42064384 14.64528679 9.60298157 14.62214661 C12.06894923 14.57918311 14.53369498 14.57042406 17 14.5625 C18.67255872 14.53936216 20.34508824 14.5139983 22.01757812 14.48632812 C26.11599381 14.42339127 30.21364356 14.39112354 34.3125 14.375 C34.3125 13.385 34.3125 12.395 34.3125 11.375 C33.45084229 11.36883667 33.45084229 11.36883667 32.57177734 11.36254883 C29.94267353 11.32944003 27.31583471 11.25878307 24.6875 11.1875 C23.78386719 11.18169922 22.88023438 11.17589844 21.94921875 11.16992188 C14.3902335 10.92163404 14.3902335 10.92163404 11.125 7.84375 C7.52835875 4.68669824 5.63536871 4.84090242 0.9375 5.0625 C-1.24875 5.165625 -3.435 5.26875 -5.6875 5.375 Z M1.3125 19.375 C-2.78800493 29.19641263 -2.78800493 29.19641263 -4.6875 39.375 C8.8425 39.375 22.3725 39.375 36.3125 39.375 C40.41300493 29.55358737 40.41300493 29.55358737 42.3125 19.375 C28.7825 19.375 15.2525 19.375 1.3125 19.375 Z " fill="#005DB4" transform="translate(10.6875,-0.375)"/>
</svg>
