<?xml version="1.0" encoding="UTF-8"?>
<svg version="1.1" xmlns="http://www.w3.org/2000/svg" width="160" height="160">
<path d="M0 0 C1.05549545 -0.00852997 2.11099091 -0.01705994 3.19847107 -0.02584839 C4.34611938 -0.02494202 5.4937677 -0.02403564 6.67619324 -0.02310181 C7.89302292 -0.02981903 9.1098526 -0.03653625 10.36355591 -0.04345703 C13.69434575 -0.05918574 17.02488621 -0.06581125 20.35569596 -0.0670886 C22.43944946 -0.06851251 24.52317702 -0.07278667 26.60692406 -0.07808304 C33.88458789 -0.09657517 41.16217857 -0.10475481 48.43986511 -0.10317993 C55.21037932 -0.10197923 61.98057438 -0.12306942 68.75100785 -0.15466726 C74.57455524 -0.18087175 80.39799867 -0.19154547 86.22160453 -0.19026911 C89.69498816 -0.18976063 93.16808813 -0.19537977 96.64141273 -0.21662521 C100.51901688 -0.23969678 104.396188 -0.23046115 108.27384949 -0.21841431 C109.41542511 -0.22965332 110.55700073 -0.24089233 111.73316956 -0.25247192 C119.51371498 -0.19112457 124.89737777 0.96222885 130.91130066 6.23226929 C131.45012878 6.88324585 131.98895691 7.53422241 132.54411316 8.20492554 C133.09841003 8.85332397 133.65270691 9.50172241 134.22380066 10.16976929 C136.99088147 14.18577576 137.91878011 17.7546864 137.9365387 22.59831238 C137.94933365 24.18155556 137.94933365 24.18155556 137.96238708 25.79678345 C137.96102753 27.51825592 137.96102753 27.51825592 137.9596405 29.27450562 C137.96635773 30.4913353 137.97307495 31.70816498 137.97999573 32.96186829 C137.99572444 36.29265813 138.00234995 39.62319859 138.0036273 42.95400834 C138.00505121 45.03776184 138.00932537 47.12148939 138.01462173 49.20523643 C138.03311386 56.48290027 138.04129351 63.76049094 138.03971863 71.03817749 C138.03851792 77.80869169 138.05960812 84.57888675 138.09120595 91.34932023 C138.11741044 97.17286762 138.12808416 102.99631105 138.12680781 108.8199169 C138.12629933 112.29330054 138.13191847 115.76640051 138.15316391 119.23972511 C138.17623548 123.11732926 138.16699985 126.99450038 138.154953 130.87216187 C138.16619202 132.01373749 138.17743103 133.15531311 138.18901062 134.33148193 C138.12766327 142.11202735 136.97430985 147.49569015 131.70426941 153.50961304 C131.05329285 154.04844116 130.40231628 154.58726929 129.73161316 155.14242554 C129.08321472 155.69672241 128.43481628 156.25101929 127.76676941 156.82211304 C123.75076294 159.58919385 120.1818523 160.51709249 115.33822632 160.53485107 C114.28273087 160.54338104 113.22723541 160.55191101 112.13975525 160.56069946 C110.99210693 160.55979309 109.84445862 160.55888672 108.66203308 160.55795288 C107.4452034 160.5646701 106.22837372 160.57138733 104.97467041 160.57830811 C101.64388057 160.59403681 98.31334011 160.60066233 94.98253036 160.60193968 C92.89877685 160.60336359 90.8150493 160.60763775 88.73130226 160.61293411 C81.45363843 160.63142624 74.17604775 160.63960588 66.89836121 160.63803101 C60.127847 160.6368303 53.35765194 160.6579205 46.58721846 160.68951833 C40.76367108 160.71572282 34.94022764 160.72639654 29.11662179 160.72512019 C25.64323816 160.72461171 22.17013819 160.73023085 18.69681358 160.75147629 C14.81920944 160.77454786 10.94203831 160.76531222 7.06437683 160.75326538 C5.92280121 160.76450439 4.78122559 160.77574341 3.60505676 160.787323 C-4.17548866 160.72597565 -9.55915146 159.57262223 -15.57307434 154.30258179 C-16.38131653 153.32611694 -16.38131653 153.32611694 -17.20588684 152.32992554 C-17.76018372 151.6815271 -18.31448059 151.03312866 -18.88557434 150.36508179 C-21.65265515 146.34907532 -22.58055379 142.78016468 -22.59831238 137.9365387 C-22.60684235 136.88104324 -22.61537231 135.82554779 -22.62416077 134.73806763 C-22.62325439 133.59041931 -22.62234802 132.442771 -22.62141418 131.26034546 C-22.62813141 130.04351578 -22.63484863 128.8266861 -22.64176941 127.57298279 C-22.65749812 124.24219294 -22.66412363 120.91165249 -22.66540098 117.58084273 C-22.66682489 115.49708923 -22.67109905 113.41336168 -22.67639542 111.32961464 C-22.69488754 104.05195081 -22.70306719 96.77436013 -22.70149231 89.49667358 C-22.7002916 82.72615938 -22.7213818 75.95596432 -22.75297964 69.18553084 C-22.77918412 63.36198345 -22.78985784 57.53854002 -22.78858149 51.71493417 C-22.78807301 48.24155054 -22.79369215 44.76845056 -22.81493759 41.29512596 C-22.83800916 37.41752181 -22.82877353 33.54035069 -22.81672668 29.66268921 C-22.8279657 28.52111359 -22.83920471 27.37953796 -22.8507843 26.20336914 C-22.78943695 18.42282372 -21.63608353 13.03916092 -16.36604309 7.02523804 C-15.71506653 6.48640991 -15.06408997 5.94758179 -14.39338684 5.39242554 C-13.7449884 4.83812866 -13.09658997 4.28383179 -12.42854309 3.71273804 C-8.41253662 0.94565723 -4.84362598 0.01775858 0 0 Z " fill="#CADCEE" transform="translate(22.330886840820313,-0.267425537109375)"/>
<path d="M0 0 C2.5 1.625 2.5 1.625 4.5 3.625 C8.10724753 3.91727954 11.67468208 4.04049238 15.29101562 4.10351562 C21.00555989 4.30532124 21.00555989 4.30532124 23.22207642 5.73840332 C25.13278831 8.55918443 24.88151008 10.86856757 24.88818359 14.25195312 C24.89344055 14.9205687 24.89869751 15.58918427 24.90411377 16.27806091 C24.91731525 18.48769507 24.90857581 20.69660854 24.8984375 22.90625 C24.90045821 24.44177387 24.90336962 25.9772968 24.90713501 27.51281738 C24.91155854 30.73080585 24.90512659 33.94854448 24.89111328 37.16650391 C24.87402111 41.29273616 24.88386218 45.41838304 24.90183067 49.54459381 C24.91266788 52.71531592 24.90922252 55.88589909 24.9014473 59.05662537 C24.8994451 60.57807993 24.90190526 62.09954707 24.90888596 63.62098694 C24.91649972 65.74701378 24.90489882 67.87209083 24.88818359 69.99804688 C24.88579681 71.20811401 24.88341003 72.41818115 24.88095093 73.66491699 C24.5 76.625 24.5 76.625 23.33828735 78.5149231 C20.72830912 80.09099691 18.7401566 80.00627237 15.69921875 80.01318359 C14.5078833 80.02264008 13.31654785 80.03209656 12.08911133 80.0418396 C10.15781372 80.03273056 10.15781372 80.03273056 8.1875 80.0234375 C6.85375815 80.02545855 5.52001737 80.02837026 4.1862793 80.03213501 C1.39198274 80.03655696 -1.40202598 80.0301319 -4.19628906 80.01611328 C-7.77774465 79.99902094 -11.35852582 80.00886289 -14.93995667 80.02683067 C-17.69377726 80.03767231 -20.44743801 80.03422054 -23.20126343 80.0264473 C-25.16388385 80.02347329 -27.12651048 80.03258292 -29.08911133 80.0418396 C-30.8761145 80.02765488 -30.8761145 80.02765488 -32.69921875 80.01318359 C-33.74940186 80.01079681 -34.79958496 80.00841003 -35.8815918 80.00595093 C-38.5 79.625 -38.5 79.625 -40.33828735 78.5149231 C-42.08422527 75.67455771 -41.8816438 73.31363807 -41.88818359 69.99804688 C-41.89344055 69.3294313 -41.89869751 68.66081573 -41.90411377 67.97193909 C-41.91731525 65.76230493 -41.90857581 63.55339146 -41.8984375 61.34375 C-41.90045821 59.80822613 -41.90336962 58.2727032 -41.90713501 56.73718262 C-41.91155854 53.51919415 -41.90512659 50.30145552 -41.89111328 47.08349609 C-41.87402111 42.95726384 -41.88386218 38.83161696 -41.90183067 34.70540619 C-41.91266788 31.53468408 -41.90922252 28.36410091 -41.9014473 25.19337463 C-41.8994451 23.67192007 -41.90190526 22.15045293 -41.90888596 20.62901306 C-41.91649972 18.50298622 -41.90489882 16.37790917 -41.88818359 14.25195312 C-41.88579681 13.04188599 -41.88341003 11.83181885 -41.88095093 10.58508301 C-41.5 7.625 -41.5 7.625 -40.21548462 5.73400879 C-36.7346042 3.48372515 -31.88656692 4.18900304 -27.8359375 4.18554688 C-22.71870501 4.05582682 -20.35234103 3.26020908 -16.5 -0.375 C-10.97417005 -2.21694332 -5.41068291 -2.12562543 0 0 Z " fill="#CADCEE" transform="translate(88.5,39.375)"/>
<path d="M0 0 C2.5 1.625 2.5 1.625 4.5 3.625 C8.10724753 3.91727954 11.67468208 4.04049238 15.29101562 4.10351562 C21.00555989 4.30532124 21.00555989 4.30532124 23.22207642 5.73840332 C25.13278831 8.55918443 24.88151008 10.86856757 24.88818359 14.25195312 C24.89344055 14.9205687 24.89869751 15.58918427 24.90411377 16.27806091 C24.91731525 18.48769507 24.90857581 20.69660854 24.8984375 22.90625 C24.90045821 24.44177387 24.90336962 25.9772968 24.90713501 27.51281738 C24.91155854 30.73080585 24.90512659 33.94854448 24.89111328 37.16650391 C24.87402111 41.29273616 24.88386218 45.41838304 24.90183067 49.54459381 C24.91266788 52.71531592 24.90922252 55.88589909 24.9014473 59.05662537 C24.8994451 60.57807993 24.90190526 62.09954707 24.90888596 63.62098694 C24.91649972 65.74701378 24.90489882 67.87209083 24.88818359 69.99804688 C24.88579681 71.20811401 24.88341003 72.41818115 24.88095093 73.66491699 C24.5 76.625 24.5 76.625 23.33828735 78.5149231 C20.72830912 80.09099691 18.7401566 80.00627237 15.69921875 80.01318359 C14.5078833 80.02264008 13.31654785 80.03209656 12.08911133 80.0418396 C10.15781372 80.03273056 10.15781372 80.03273056 8.1875 80.0234375 C6.85375815 80.02545855 5.52001737 80.02837026 4.1862793 80.03213501 C1.39198274 80.03655696 -1.40202598 80.0301319 -4.19628906 80.01611328 C-7.77774465 79.99902094 -11.35852582 80.00886289 -14.93995667 80.02683067 C-17.69377726 80.03767231 -20.44743801 80.03422054 -23.20126343 80.0264473 C-25.16388385 80.02347329 -27.12651048 80.03258292 -29.08911133 80.0418396 C-30.8761145 80.02765488 -30.8761145 80.02765488 -32.69921875 80.01318359 C-33.74940186 80.01079681 -34.79958496 80.00841003 -35.8815918 80.00595093 C-38.5 79.625 -38.5 79.625 -40.33828735 78.5149231 C-42.08422527 75.67455771 -41.8816438 73.31363807 -41.88818359 69.99804688 C-41.89344055 69.3294313 -41.89869751 68.66081573 -41.90411377 67.97193909 C-41.91731525 65.76230493 -41.90857581 63.55339146 -41.8984375 61.34375 C-41.90045821 59.80822613 -41.90336962 58.2727032 -41.90713501 56.73718262 C-41.91155854 53.51919415 -41.90512659 50.30145552 -41.89111328 47.08349609 C-41.87402111 42.95726384 -41.88386218 38.83161696 -41.90183067 34.70540619 C-41.91266788 31.53468408 -41.90922252 28.36410091 -41.9014473 25.19337463 C-41.8994451 23.67192007 -41.90190526 22.15045293 -41.90888596 20.62901306 C-41.91649972 18.50298622 -41.90489882 16.37790917 -41.88818359 14.25195312 C-41.88579681 13.04188599 -41.88341003 11.83181885 -41.88095093 10.58508301 C-41.5 7.625 -41.5 7.625 -40.21548462 5.73400879 C-36.7346042 3.48372515 -31.88656692 4.18900304 -27.8359375 4.18554688 C-22.71870501 4.05582682 -20.35234103 3.26020908 -16.5 -0.375 C-10.97417005 -2.21694332 -5.41068291 -2.12562543 0 0 Z M-35.5 10.625 C-35.5 31.415 -35.5 52.205 -35.5 73.625 C-17.68 73.625 0.14 73.625 18.5 73.625 C18.5 52.835 18.5 32.045 18.5 10.625 C15.2 10.625 11.9 10.625 8.5 10.625 C8.5 14.255 8.5 17.885 8.5 21.625 C-2.72 21.625 -13.94 21.625 -25.5 21.625 C-25.5 17.995 -25.5 14.365 -25.5 10.625 C-28.8 10.625 -32.1 10.625 -35.5 10.625 Z " fill="#015EB5" transform="translate(88.5,39.375)"/>
<path d="M0 0 C2.625 2.8125 2.625 2.8125 3.625 8.8125 C-4.295 8.8125 -12.215 8.8125 -20.375 8.8125 C-19.30188221 3.44691104 -18.11920369 1.6437782 -14.375 -2.1875 C-9.70103616 -4.52448192 -4.03376648 -3.0156283 0 0 Z " fill="#C8DBEE" transform="translate(88.375,47.1875)"/>
<path d="M0 0 C1.16781006 0.00523682 2.33562012 0.01047363 3.53881836 0.01586914 C4.79887695 0.0190918 6.05893555 0.02231445 7.35717773 0.02563477 C8.6976732 0.03399136 10.03816799 0.04245632 11.37866211 0.05102539 C12.72306153 0.05603879 14.06746271 0.06060197 15.41186523 0.06469727 C18.71334151 0.07653051 22.01473014 0.09301568 25.31616211 0.11352539 C25.69834978 1.76967196 26.03011313 3.43809563 26.31616211 5.11352539 C25.31616211 6.11352539 25.31616211 6.11352539 22.63232422 6.22705078 C21.46451416 6.22181396 20.2967041 6.21657715 19.09350586 6.21118164 C17.83344727 6.20795898 16.57338867 6.20473633 15.27514648 6.20141602 C13.93465102 6.19305942 12.59415623 6.18459446 11.25366211 6.17602539 C9.90926269 6.17101199 8.56486151 6.16644881 7.22045898 6.16235352 C3.9189827 6.15052027 0.61759408 6.1340351 -2.68383789 6.11352539 C-3.06602556 4.45737882 -3.39778891 2.78895515 -3.68383789 1.11352539 C-2.68383789 0.11352539 -2.68383789 0.11352539 0 0 Z " fill="#035EB5" transform="translate(68.683837890625,85.886474609375)"/>
<path d="M0 0 C1.16781006 0.00523682 2.33562012 0.01047363 3.53881836 0.01586914 C4.79887695 0.0190918 6.05893555 0.02231445 7.35717773 0.02563477 C8.6976732 0.03399136 10.03816799 0.04245632 11.37866211 0.05102539 C12.72306153 0.05603879 14.06746271 0.06060197 15.41186523 0.06469727 C18.71334151 0.07653051 22.01473014 0.09301568 25.31616211 0.11352539 C25.69834978 1.76967196 26.03011313 3.43809563 26.31616211 5.11352539 C25.31616211 6.11352539 25.31616211 6.11352539 22.63232422 6.22705078 C21.46451416 6.22181396 20.2967041 6.21657715 19.09350586 6.21118164 C17.83344727 6.20795898 16.57338867 6.20473633 15.27514648 6.20141602 C13.93465102 6.19305942 12.59415623 6.18459446 11.25366211 6.17602539 C9.90926269 6.17101199 8.56486151 6.16644881 7.22045898 6.16235352 C3.9189827 6.15052027 0.61759408 6.1340351 -2.68383789 6.11352539 C-3.06602556 4.45737882 -3.39778891 2.78895515 -3.68383789 1.11352539 C-2.68383789 0.11352539 -2.68383789 0.11352539 0 0 Z " fill="#035EB5" transform="translate(68.683837890625,73.886474609375)"/>
</svg>
